<svg xmlns="http://www.w3.org/2000/svg" xmlns:xlink="http://www.w3.org/1999/xlink" width="45" height="auto" xml:space="preserve" overflow="hidden" viewBox="0 0 452 582"><g transform="translate(-1359 -182)"><path d="M1405 325.755C1405 310.979 1416.98 299 1431.76 299L1740.24 299C1755.02 299 1767 310.979 1767 325.755L1767 689.245C1767 704.021 1755.02 716 1740.24 716L1431.76 716C1416.98 716 1405 704.021 1405 689.245Z" stroke="#404040" stroke-width="13.75" stroke-miterlimit="8" fill="none" fill-rule="evenodd"/><path d="M1453 368.5C1453 280.963 1512.99 210 1587 210 1661.01 210 1721 280.963 1721 368.5L1707.6 368.5C1707.6 288.365 1653.6 223.403 1587 223.403 1520.4 223.403 1466.4 288.365 1466.4 368.5Z" fill="#404040" fill-rule="evenodd"/><g><g><g><path d="M129 0C57.7555 0 0 28.88 0 64.4999 0 100.12 57.7555 129 129 129 200.244 129 258.004 100.12 258.004 64.4999 258.004 28.88 200.24 0 129 0ZM129 118.82C63.3804 118.82 10.1849 94.4995 10.1849 64.4999 10.1849 34.5004 63.3804 10.1849 129 10.1849 194.619 10.1849 247.819 34.5004 247.819 64.4999 247.819 94.4995 194.624 118.82 129 118.82ZM112.735 53.1864 112.735 43.0015 149.142 43.0015 149.142 53.1864 136.036 53.1864 136.036 86.0121 125.837 86.0121 125.837 53.1864ZM193.058 43.0015 193.058 86.0121 182.873 86.0121 164.401 60.4132 164.401 86.0121 154.221 86.0121 154.221 43.0015 164.401 43.0015 182.873 68.6003 182.873 43.0015ZM64.6456 86.0121 64.6456 43.0015 74.8305 43.0015 86.144 60.4041 97.4576 43.0015 107.643 43.0015 107.643 86.0121 97.4576 86.0121 97.4576 61.6784 89.7211 73.5517 82.5534 73.5517 74.8168 61.6784 74.8168 86.0121Z" fill="#1D1D1B" transform="matrix(1.00211 0 0 1 1456.23 440)"/></g></g></g></g><!--© 2024 DeviceIcons. Free for personal and commercial use. Attribution required. License: https://www.deviceicons.com/licence--></svg>