<svg xmlns="http://www.w3.org/2000/svg" xmlns:xlink="http://www.w3.org/1999/xlink" width="90" height="auto" xml:space="preserve" overflow="hidden" viewBox="0 0 546 470"><g transform="translate(-1860 -991)"><text fill="#262626" font-family="Aptos,Aptos_MSFontService,sans-serif" font-weight="400" font-size="147" transform="matrix(0.908437 0.418021 -0.418021 0.908437 2017.11 1200)">5G</text><path d="M1974.2 1143.95 1947.38 1144.97 1990.88 1290.71 2262.62 1290.71C2272.87 1231.38 2285.47 1136.75 2293.38 1074.71" stroke="#404040" stroke-width="14.1513" stroke-miterlimit="8" fill="none" fill-rule="evenodd"/><path d="M2185.38 1363.74C2185.38 1355.45 2192.54 1348.74 2201.38 1348.74 2210.22 1348.74 2217.38 1355.45 2217.38 1363.74 2217.38 1372.02 2210.22 1378.74 2201.38 1378.74 2192.54 1378.74 2185.38 1372.02 2185.38 1363.74Z" stroke="#404040" stroke-width="14.1513" stroke-miterlimit="8" fill="none" fill-rule="evenodd"/><path d="M2289.38 1077.7 2344.38 1076.7 2344.38 1076.7" stroke="#404040" stroke-width="14.1513" stroke-miterlimit="8" fill="none" fill-rule="evenodd"/><path d="M2265.38 1277.71 2254.9 1329.71 2004.38 1329.71" stroke="#404040" stroke-width="14.1513" stroke-miterlimit="8" fill="none" fill-rule="evenodd"/><path d="M2047.38 1363.74C2047.38 1355.45 2054.54 1348.74 2063.38 1348.74 2072.22 1348.74 2079.38 1355.45 2079.38 1363.74 2079.38 1372.02 2072.22 1378.74 2063.38 1378.74 2054.54 1378.74 2047.38 1372.02 2047.38 1363.74Z" stroke="#404040" stroke-width="14.1513" stroke-miterlimit="8" fill="none" fill-rule="evenodd"/></g><!--© 2024 DeviceIcons. Free for personal and commercial use. Attribution required. License: https://www.deviceicons.com/licence--></svg>