<svg xmlns="http://www.w3.org/2000/svg" xmlns:xlink="http://www.w3.org/1999/xlink" width="45" height="auto" xml:space="preserve" overflow="hidden" viewBox="0 0 401 673"><g transform="translate(-1256 -1038)"><text font-family="Aptos,Aptos_MSFontService,sans-serif" font-weight="400" font-size="83" transform="matrix(1 0 0 1 1384.33 1290)">NIN</text><path d="M1349 1235.05C1349 1221.77 1359.77 1211 1373.05 1211L1533.95 1211C1547.23 1211 1558 1221.77 1558 1235.05L1558 1390.95C1558 1404.23 1547.23 1415 1533.95 1415L1373.05 1415C1359.77 1415 1349 1404.23 1349 1390.95Z" stroke="#404040" stroke-width="13.75" stroke-miterlimit="8" fill="none" fill-rule="evenodd"/><path d="M1414 1348.62 1440.33 1379 1493 1321" stroke="#404040" stroke-width="13.75" stroke-miterlimit="8" fill="none" fill-rule="evenodd"/><path d="M1302.29 1126.64C1302.29 1097.97 1324.97 1074.72 1352.96 1074.72L1555.62 1074.72C1583.61 1074.72 1606.29 1097.97 1606.29 1126.64L1606.29 1579.79C1606.29 1608.47 1583.61 1631.72 1555.62 1631.72L1352.96 1631.72C1324.97 1631.72 1302.29 1608.47 1302.29 1579.79Z" stroke="#404040" stroke-width="13.75" stroke-miterlimit="8" fill="none" fill-rule="evenodd"/><path d="M1380.29 1560.58 1525.29 1560.58" stroke="#404040" stroke-width="13.75" stroke-miterlimit="8" fill="none" fill-rule="evenodd"/></g><!--© 2024 DeviceIcons. Free for personal and commercial use. Attribution required. License: https://www.deviceicons.com/licence--></svg>