<svg xmlns="http://www.w3.org/2000/svg" xmlns:xlink="http://www.w3.org/1999/xlink" width="94.73684210526316" height="auto" xml:space="preserve" overflow="hidden" viewBox="0 0 639 426"><g transform="translate(-2614 -467)"><path d="M2881 842 2890.2 859 3059.74 859 3065 843.307 3065 843.307" stroke="#404040" stroke-width="12.375" stroke-miterlimit="8" fill="none" fill-rule="evenodd"/><path d="M2865 534.5C2865 530.358 2868.36 527 2872.5 527L3074.5 527C3078.64 527 3082 530.358 3082 534.5L3082 837.5C3082 841.642 3078.64 845 3074.5 845L2872.5 845C2868.36 845 2865 841.642 2865 837.5Z" stroke="#404040" stroke-width="12.375" stroke-miterlimit="8" fill="none" fill-rule="evenodd"/><text font-family="Aptos,Aptos_MSFontService,sans-serif" font-weight="400" font-size="73" transform="matrix(1 0 0 1 2927.5 687)">5G</text><path d="M2870 507 3075.53 507" stroke="#404040" stroke-width="12.375" stroke-miterlimit="8" fill="none" fill-rule="evenodd"/><path d="M2881 507 2890.2 524 3056.3 524 3065 508.308 3065 508.308" stroke="#404040" stroke-width="12.375" stroke-miterlimit="8" fill="none" fill-rule="evenodd"/><path d="M2893 853.715 2677.3 856C2660.01 856 2646 842.102 2646 824.958L2646 651.305C2646 634.161 2660.01 620.263 2677.3 620.263 2737.91 620.263 2866.36 618 2866.36 618" stroke="#404040" stroke-width="12.375" stroke-miterlimit="8" fill="none" fill-rule="evenodd"/><path d="M0 0 0.000360892 97.0111" stroke="#404040" stroke-width="12.375" stroke-miterlimit="8" fill="none" fill-rule="evenodd" transform="matrix(1 0 0 -1 2694 624.011)"/><path d="M2708 807 2724.42 807" stroke="#404040" stroke-width="12.375" stroke-miterlimit="8" fill="none" fill-rule="evenodd"/><path d="M2827 806 2865.1 806" stroke="#404040" stroke-width="12.375" stroke-miterlimit="8" fill="none" fill-rule="evenodd"/><path d="M2741 807 2757.42 807" stroke="#404040" stroke-width="12.375" stroke-miterlimit="8" fill="none" fill-rule="evenodd"/><path d="M160 185.204 20.2739 187C9.07694 187 0 176.08 0 162.61L0 26.168C0 12.6977 9.07694 1.77785 20.2739 1.77785 59.5377 1.77785 142.746 0 142.746 0" stroke="#404040" stroke-width="12.375" stroke-miterlimit="8" fill="none" fill-rule="evenodd" transform="matrix(-1 0 0 1 3223 669)"/><path d="M3182.85 672.283 3155 602" stroke="#404040" stroke-width="12.375" stroke-miterlimit="8" fill="none" fill-rule="evenodd"/><path d="M3146 814C3146 809.582 3149.81 806 3154.5 806 3159.19 806 3163 809.582 3163 814 3163 818.418 3159.19 822 3154.5 822 3149.81 822 3146 818.418 3146 814Z" fill="#404040" fill-rule="evenodd"/><path d="M3106 814C3106 809.582 3109.58 806 3114 806 3118.42 806 3122 809.582 3122 814 3122 818.418 3118.42 822 3114 822 3109.58 822 3106 818.418 3106 814Z" fill="#404040" fill-rule="evenodd"/></g><!--© 2024 DeviceIcons. Free for personal and commercial use. Attribution required. License: https://www.deviceicons.com/licence--></svg>