<svg xmlns="http://www.w3.org/2000/svg" xmlns:xlink="http://www.w3.org/1999/xlink" width="90" height="auto" xml:space="preserve" overflow="hidden" viewBox="0 0 596 579"><g transform="translate(-2623 -1050)"><path d="M2844.95 1177.1C2879.49 1133.51 2942.37 1125.05 2985.39 1158.2 2993.34 1164.34 3000.28 1171.68 3005.95 1179.96L3005.95 1179.96C2975.34 1135.21 2913.31 1124.53 2867.41 1156.11 2858.92 1161.95 2851.34 1169.03 2844.95 1177.1Z" stroke="#404040" stroke-width="10.3125" stroke-miterlimit="8" fill="#156082" fill-rule="evenodd"/><path d="M2917.95 1231.96C2917.95 1229.2 2920.19 1226.96 2922.95 1226.96 2925.71 1226.96 2927.95 1229.2 2927.95 1231.96 2927.95 1234.72 2925.71 1236.96 2922.95 1236.96 2920.19 1236.96 2917.95 1234.72 2917.95 1231.96Z" stroke="#404040" stroke-width="10.3125" stroke-miterlimit="8" fill="#404040" fill-rule="evenodd"/><path d="M2875.95 1196.67C2897.37 1168.31 2936.01 1162.53 2962.27 1183.75 2967.21 1187.74 2971.49 1192.53 2974.95 1197.96L2974.95 1197.96C2956.5 1169.08 2918.51 1162.3 2890.08 1182.81 2884.74 1186.67 2879.97 1191.34 2875.95 1196.67Z" stroke="#404040" stroke-width="10.3125" stroke-miterlimit="8" fill="#156082" fill-rule="evenodd"/><path d="M2904.95 1211.96C2913.7 1201.37 2928.91 1198.78 2938.91 1206.18 2940.92 1207.66 2942.62 1209.49 2943.95 1211.58L2943.95 1211.58C2937.33 1201.14 2922.61 1198.84 2911.09 1206.45 2908.78 1207.97 2906.7 1209.84 2904.95 1211.96Z" stroke="#404040" stroke-width="10.3125" stroke-miterlimit="8" fill="#156082" fill-rule="evenodd"/><path d="M2763 1292.02C2763 1275.44 2776.44 1262 2793.02 1262L3055.98 1262C3072.56 1262 3086 1275.44 3086 1292.02L3086 1459.98C3086 1476.56 3072.56 1490 3055.98 1490L2793.02 1490C2776.44 1490 2763 1476.56 2763 1459.98Z" stroke="#404040" stroke-width="13.75" stroke-miterlimit="8" fill="none" fill-rule="evenodd"/><path d="M2953 1436 3032.72 1436" stroke="#404040" stroke-width="13.75" stroke-miterlimit="8" fill="none" fill-rule="evenodd"/><path d="M2853 1436 2872.07 1436" stroke="#404040" stroke-width="13.75" stroke-miterlimit="8" fill="none" fill-rule="evenodd"/><path d="M2818 1436 2837.07 1436" stroke="#404040" stroke-width="13.75" stroke-miterlimit="8" fill="none" fill-rule="evenodd"/><path d="M0 0 0.000360892 99.7806" stroke="#404040" stroke-width="13.75" stroke-miterlimit="8" fill="none" fill-rule="evenodd" transform="matrix(1 0 0 -1 3054 1258.78)"/><path d="M0 0 0.000360892 99.7806" stroke="#404040" stroke-width="13.75" stroke-miterlimit="8" fill="none" fill-rule="evenodd" transform="matrix(1 0 0 -1 2797 1264.78)"/></g><!--© 2024 DeviceIcons. Free for personal and commercial use. Attribution required. License: https://www.deviceicons.com/licence--></svg>